<svg xmlns="http://www.w3.org/2000/svg" viewBox="0 0 860 360" font-family="-apple-system,Segoe UI,Helvetica,Arial,sans-serif">
<text x="430.0" y="18.0" font-size="14" text-anchor="middle" fill="#57606a" font-weight="bold">SCANWAY (SCW.WA) - cena tygodniowa (close), 2023-2026</text>
<line x1="55" y1="320.0" x2="840" y2="320.0" stroke="#d0d7de" stroke-width="1"/>
<text x="47.0" y="324.0" font-size="11" text-anchor="end" fill="#57606a" font-weight="normal">0</text>
<line x1="55" y1="259.3" x2="840" y2="259.3" stroke="#d0d7de" stroke-width="1"/>
<text x="47.0" y="263.3" font-size="11" text-anchor="end" fill="#57606a" font-weight="normal">100</text>
<line x1="55" y1="198.6" x2="840" y2="198.6" stroke="#d0d7de" stroke-width="1"/>
<text x="47.0" y="202.6" font-size="11" text-anchor="end" fill="#57606a" font-weight="normal">200</text>
<line x1="55" y1="137.9" x2="840" y2="137.9" stroke="#d0d7de" stroke-width="1"/>
<text x="47.0" y="141.9" font-size="11" text-anchor="end" fill="#57606a" font-weight="normal">300</text>
<line x1="55" y1="77.2" x2="840" y2="77.2" stroke="#d0d7de" stroke-width="1"/>
<text x="47.0" y="81.2" font-size="11" text-anchor="end" fill="#57606a" font-weight="normal">400</text>
<text x="55.0" y="348.0" font-size="11" text-anchor="middle" fill="#57606a" font-weight="normal">2023</text>
<text x="122.3" y="348.0" font-size="11" text-anchor="middle" fill="#57606a" font-weight="normal">2024</text>
<text x="413.9" y="348.0" font-size="11" text-anchor="middle" fill="#57606a" font-weight="normal">2025</text>
<text x="705.4" y="348.0" font-size="11" text-anchor="middle" fill="#57606a" font-weight="normal">2026</text>
<polyline fill="none" stroke="#0969da" stroke-width="2" points="55.0,294.6 60.6,290.9 66.2,293.3 71.8,293.6 77.4,297.6 83.0,299.2 88.6,295.1 94.2,296.3 99.9,297.8 105.5,297.9 111.1,297.8 116.7,297.5 122.3,297.9 127.9,297.5 133.5,297.7 139.1,297.1 144.7,295.5 150.3,295.9 155.9,298.0 161.5,296.6 167.1,298.3 172.8,298.8 178.4,298.0 184.0,299.4 189.6,300.7 195.2,299.4 200.8,299.6 206.4,298.8 212.0,299.3 217.6,298.7 223.2,299.4 228.8,298.9 234.4,299.7 240.0,299.3 245.6,298.8 251.2,299.2 256.9,299.1 262.5,299.2 268.1,299.3 273.7,298.1 279.3,298.7 284.9,298.7 290.5,298.8 296.1,298.6 301.7,296.6 307.3,294.3 312.9,295.4 318.5,294.5 324.1,295.3 329.8,295.1 335.4,295.9 341.0,297.1 346.6,297.1 352.2,297.5 357.8,297.5 363.4,296.6 369.0,296.4 374.6,298.2 380.2,298.6 385.8,298.5 391.4,298.1 397.0,296.9 402.6,294.3 408.2,294.1 413.9,292.4 419.5,293.3 425.1,291.6 430.7,290.5 436.3,290.9 441.9,284.2 447.5,282.7 453.1,284.2 458.7,283.2 464.3,281.2 469.9,276.8 475.5,276.1 481.1,278.1 486.8,285.4 492.4,282.4 498.0,279.8 503.6,280.2 509.2,279.5 514.8,277.4 520.4,277.5 526.0,279.9 531.6,279.1 537.2,271.9 542.8,271.8 548.4,270.1 554.0,270.2 559.6,256.6 565.2,257.2 570.9,249.9 576.5,247.8 582.1,254.4 587.7,252.9 593.3,249.6 598.9,249.6 604.5,241.7 610.1,235.9 615.7,239.0 621.3,236.2 626.9,228.3 632.5,212.6 638.1,214.4 643.8,218.0 649.4,216.5 655.0,214.7 660.6,216.2 666.2,214.1 671.8,226.8 677.4,211.0 683.0,218.0 688.6,218.0 694.2,222.9 699.8,212.3 705.4,209.8 711.0,208.6 716.6,176.1 722.2,171.3 727.9,149.4 733.5,168.2 739.1,168.9 744.7,144.0 750.3,119.7 755.9,102.1 761.5,122.7 767.1,111.8 772.7,125.8 778.3,125.1 783.9,71.1 789.5,43.8 795.1,59.0 800.8,99.7 806.4,107.5 812.0,111.2 817.6,82.1 823.2,102.1 828.8,108.2 834.4,112.4 840.0,135.5"/>
<circle cx="840.0" cy="135.5" r="3.5" fill="#0969da"/>
<text x="840.0" y="127.5" font-size="11" text-anchor="end" fill="#0969da" font-weight="bold">304 PLN</text>
</svg>