<svg xmlns="http://www.w3.org/2000/svg" viewBox="0 0 720 320" font-family="-apple-system,Segoe UI,Helvetica,Arial,sans-serif">
<text x="360.0" y="16.0" font-size="13" text-anchor="middle" fill="#57606a" font-weight="bold">Jak czesto dana godzina jest SZCZYTEM dnia (% sesji, 57 dni)</text>
<text x="360.0" y="32.0" font-size="10" text-anchor="middle" fill="#cf222e" font-weight="normal">otwarcie 09:00 jest dziennym maksimum w 41% sesji - najsilniejszy sygnal sprzedazy</text>
<line x1="45" y1="280.0" x2="700" y2="280.0" stroke="#8b949e" stroke-width="1.5"/>
<line x1="45" y1="226.7" x2="700" y2="226.7" stroke="#d0d7de" stroke-width="1" stroke-dasharray="3 3"/>
<text x="37.0" y="230.7" font-size="10" text-anchor="end" fill="#57606a" font-weight="normal">10%</text>
<line x1="45" y1="173.3" x2="700" y2="173.3" stroke="#d0d7de" stroke-width="1" stroke-dasharray="3 3"/>
<text x="37.0" y="177.3" font-size="10" text-anchor="end" fill="#57606a" font-weight="normal">20%</text>
<line x1="45" y1="120.0" x2="700" y2="120.0" stroke="#d0d7de" stroke-width="1" stroke-dasharray="3 3"/>
<text x="37.0" y="124.0" font-size="10" text-anchor="end" fill="#57606a" font-weight="normal">30%</text>
<line x1="45" y1="66.7" x2="700" y2="66.7" stroke="#d0d7de" stroke-width="1" stroke-dasharray="3 3"/>
<text x="37.0" y="70.7" font-size="10" text-anchor="end" fill="#57606a" font-weight="normal">40%</text>
<rect x="57.4" y="61.0" width="40.6" height="219.0" fill="#cf222e" rx="2"/>
<text x="77.8" y="56.0" font-size="9" text-anchor="middle" fill="#57606a" font-weight="bold">41</text>
<text x="77.8" y="308.0" font-size="9" text-anchor="end" fill="#57606a" transform="rotate(-45 77.8 308.0)">09:00</text>
<rect x="122.9" y="270.5" width="40.6" height="9.5" fill="#afb8c1" rx="2"/>
<text x="143.2" y="308.0" font-size="9" text-anchor="end" fill="#57606a" transform="rotate(-45 143.2 308.0)">10:00</text>
<rect x="188.4" y="241.9" width="40.6" height="38.1" fill="#afb8c1" rx="2"/>
<text x="208.8" y="236.9" font-size="9" text-anchor="middle" fill="#57606a" font-weight="bold">7</text>
<text x="208.8" y="308.0" font-size="9" text-anchor="end" fill="#57606a" transform="rotate(-45 208.8 308.0)">10:15</text>
<rect x="253.9" y="241.2" width="40.6" height="38.8" fill="#afb8c1" rx="2"/>
<text x="274.2" y="236.2" font-size="9" text-anchor="middle" fill="#57606a" font-weight="bold">7</text>
<text x="274.2" y="308.0" font-size="9" text-anchor="end" fill="#57606a" transform="rotate(-45 274.2 308.0)">10:30</text>
<rect x="319.4" y="241.9" width="40.6" height="38.1" fill="#afb8c1" rx="2"/>
<text x="339.8" y="236.9" font-size="9" text-anchor="middle" fill="#57606a" font-weight="bold">7</text>
<text x="339.8" y="308.0" font-size="9" text-anchor="end" fill="#57606a" transform="rotate(-45 339.8 308.0)">10:45</text>
<rect x="384.9" y="232.4" width="40.6" height="47.6" fill="#afb8c1" rx="2"/>
<text x="405.2" y="227.4" font-size="9" text-anchor="middle" fill="#57606a" font-weight="bold">9</text>
<text x="405.2" y="308.0" font-size="9" text-anchor="end" fill="#57606a" transform="rotate(-45 405.2 308.0)">11:00</text>
<rect x="450.4" y="261.3" width="40.6" height="18.7" fill="#afb8c1" rx="2"/>
<text x="470.8" y="308.0" font-size="9" text-anchor="end" fill="#57606a" transform="rotate(-45 470.8 308.0)">11:15</text>
<rect x="515.9" y="270.7" width="40.6" height="9.3" fill="#afb8c1" rx="2"/>
<text x="536.2" y="308.0" font-size="9" text-anchor="end" fill="#57606a" transform="rotate(-45 536.2 308.0)">11:30</text>
<rect x="581.4" y="270.7" width="40.6" height="9.3" fill="#afb8c1" rx="2"/>
<text x="601.8" y="308.0" font-size="9" text-anchor="end" fill="#57606a" transform="rotate(-45 601.8 308.0)">12:30</text>
<rect x="646.9" y="242.6" width="40.6" height="37.4" fill="#afb8c1" rx="2"/>
<text x="667.2" y="237.6" font-size="9" text-anchor="middle" fill="#57606a" font-weight="bold">7</text>
<text x="667.2" y="308.0" font-size="9" text-anchor="end" fill="#57606a" transform="rotate(-45 667.2 308.0)">12:45</text>
</svg>