<svg xmlns="http://www.w3.org/2000/svg" viewBox="0 0 820 380" font-family="-apple-system,Segoe UI,Helvetica,Arial,sans-serif">
<text x="410.0" y="22.0" font-size="14" text-anchor="middle" fill="#57606a" font-weight="bold">Porownanie modeli: F1 (zwodniczy) vs ROC AUC (wlasciwy)</text>
<rect x="160" y="36" width="14" height="10" fill="#afb8c1" rx="2"/>
<text x="180.0" y="45.0" font-size="11" text-anchor="start" fill="#57606a" font-weight="normal">avg F1</text>
<rect x="250" y="36" width="14" height="10" fill="#0969da" rx="2"/>
<text x="270.0" y="45.0" font-size="11" text-anchor="start" fill="#57606a" font-weight="normal">avg ROC AUC</text>
<line x1="480.0" y1="60" x2="480.0" y2="350" stroke="#cf222e" stroke-width="1" stroke-dasharray="4 3"/>
<text x="480.0" y="56.0" font-size="9" text-anchor="middle" fill="#cf222e" font-weight="normal">AUC 0.5 = losowy</text>
<text x="152.0" y="83.7" font-size="10" text-anchor="end" fill="#cf222e" font-weight="bold">baseline_most_frequent</text>
<rect x="160" y="65.6" width="557.4" height="14.1" fill="#afb8c1" rx="2"/>
<text x="721.4" y="77.7" font-size="9" text-anchor="start" fill="#57606a" font-weight="normal">0.871</text>
<rect x="160" y="81.7" width="320.0" height="14.1" fill="#cf222e" rx="2"/>
<text x="484.0" y="95.8" font-size="9" text-anchor="start" fill="#57606a" font-weight="normal">0.500</text>
<text x="152.0" y="125.1" font-size="10" text-anchor="end" fill="#57606a" font-weight="normal">gradient_boosting</text>
<rect x="160" y="107.1" width="523.5" height="14.1" fill="#afb8c1" rx="2"/>
<text x="687.5" y="119.1" font-size="9" text-anchor="start" fill="#57606a" font-weight="normal">0.818</text>
<rect x="160" y="123.1" width="387.2" height="14.1" fill="#0969da" rx="2"/>
<text x="551.2" y="137.2" font-size="9" text-anchor="start" fill="#57606a" font-weight="normal">0.605</text>
<text x="152.0" y="166.6" font-size="10" text-anchor="end" fill="#57606a" font-weight="normal">knn</text>
<rect x="160" y="148.5" width="513.9" height="14.1" fill="#afb8c1" rx="2"/>
<text x="677.9" y="160.6" font-size="9" text-anchor="start" fill="#57606a" font-weight="normal">0.803</text>
<rect x="160" y="164.6" width="371.2" height="14.1" fill="#0969da" rx="2"/>
<text x="535.2" y="178.7" font-size="9" text-anchor="start" fill="#57606a" font-weight="normal">0.580</text>
<text x="152.0" y="208.0" font-size="10" text-anchor="end" fill="#57606a" font-weight="normal">svm_rbf</text>
<rect x="160" y="189.9" width="490.2" height="14.1" fill="#afb8c1" rx="2"/>
<text x="654.2" y="202.0" font-size="9" text-anchor="start" fill="#57606a" font-weight="normal">0.766</text>
<rect x="160" y="206.0" width="383.4" height="14.1" fill="#0969da" rx="2"/>
<text x="547.4" y="220.1" font-size="9" text-anchor="start" fill="#57606a" font-weight="normal">0.599</text>
<text x="152.0" y="249.4" font-size="10" text-anchor="end" fill="#1a7f37" font-weight="bold">logistic_regression</text>
<rect x="160" y="231.3" width="440.3" height="14.1" fill="#afb8c1" rx="2"/>
<text x="604.3" y="243.4" font-size="9" text-anchor="start" fill="#57606a" font-weight="normal">0.688</text>
<rect x="160" y="247.4" width="410.9" height="14.1" fill="#1a7f37" rx="2"/>
<text x="574.9" y="261.5" font-size="9" text-anchor="start" fill="#57606a" font-weight="normal">0.642</text>
<text x="152.0" y="290.9" font-size="10" text-anchor="end" fill="#57606a" font-weight="normal">random_forest</text>
<rect x="160" y="272.8" width="429.4" height="14.1" fill="#afb8c1" rx="2"/>
<text x="593.4" y="284.9" font-size="9" text-anchor="start" fill="#57606a" font-weight="normal">0.671</text>
<rect x="160" y="288.9" width="403.2" height="14.1" fill="#0969da" rx="2"/>
<text x="567.2" y="302.9" font-size="9" text-anchor="start" fill="#57606a" font-weight="normal">0.630</text>
<text x="152.0" y="332.3" font-size="10" text-anchor="end" fill="#57606a" font-weight="normal">extra_trees</text>
<rect x="160" y="314.2" width="421.1" height="14.1" fill="#afb8c1" rx="2"/>
<text x="585.1" y="326.3" font-size="9" text-anchor="start" fill="#57606a" font-weight="normal">0.658</text>
<rect x="160" y="330.3" width="391.0" height="14.1" fill="#0969da" rx="2"/>
<text x="555.0" y="344.4" font-size="9" text-anchor="start" fill="#57606a" font-weight="normal">0.611</text>
</svg>