<svg xmlns="http://www.w3.org/2000/svg" viewBox="0 0 720 300" font-family="-apple-system,Segoe UI,Helvetica,Arial,sans-serif">
<text x="360.0" y="20.0" font-size="13" text-anchor="middle" fill="#57606a" font-weight="bold">Ranking wg ROC AUC (baseline wykluczony) - wybor produkcyjny</text>
<text x="360.0" y="38.0" font-size="10" text-anchor="middle" fill="#57606a" font-weight="normal">skala 0.50 (losowy) - 0.65</text>
<line x1="160.0" y1="50" x2="160.0" y2="280" stroke="#d0d7de" stroke-width="1" stroke-dasharray="3 3"/>
<text x="160.0" y="295.0" font-size="9" text-anchor="middle" fill="#57606a" font-weight="normal">0.50</text>
<line x1="325.6" y1="50" x2="325.6" y2="280" stroke="#d0d7de" stroke-width="1" stroke-dasharray="3 3"/>
<text x="325.6" y="295.0" font-size="9" text-anchor="middle" fill="#57606a" font-weight="normal">0.55</text>
<line x1="491.2" y1="50" x2="491.2" y2="280" stroke="#d0d7de" stroke-width="1" stroke-dasharray="3 3"/>
<text x="491.2" y="295.0" font-size="9" text-anchor="middle" fill="#57606a" font-weight="normal">0.60</text>
<line x1="656.9" y1="50" x2="656.9" y2="280" stroke="#d0d7de" stroke-width="1" stroke-dasharray="3 3"/>
<text x="656.9" y="295.0" font-size="9" text-anchor="middle" fill="#57606a" font-weight="normal">0.65</text>
<text x="152.0" y="72.2" font-size="10" text-anchor="end" fill="#1a7f37" font-weight="bold">logistic_regression</text>
<rect x="160" y="58.6" width="470.4" height="21.1" fill="#1a7f37" rx="2"/>
<text x="635.4" y="72.2" font-size="10" text-anchor="start" fill="#1a7f37" font-weight="bold">0.642  &#8592; WYBRANY</text>
<text x="152.0" y="110.5" font-size="10" text-anchor="end" fill="#57606a" font-weight="normal">random_forest</text>
<rect x="160" y="97.0" width="430.6" height="21.1" fill="#0969da" rx="2"/>
<text x="595.6" y="110.5" font-size="10" text-anchor="start" fill="#57606a" font-weight="normal">0.630</text>
<text x="152.0" y="148.8" font-size="10" text-anchor="end" fill="#57606a" font-weight="normal">extra_trees</text>
<rect x="160" y="135.3" width="367.7" height="21.1" fill="#0969da" rx="2"/>
<text x="532.7" y="148.8" font-size="10" text-anchor="start" fill="#57606a" font-weight="normal">0.611</text>
<text x="152.0" y="187.2" font-size="10" text-anchor="end" fill="#57606a" font-weight="normal">gradient_boosting</text>
<rect x="160" y="173.6" width="347.8" height="21.1" fill="#0969da" rx="2"/>
<text x="512.8" y="187.2" font-size="10" text-anchor="start" fill="#57606a" font-weight="normal">0.605</text>
<text x="152.0" y="225.5" font-size="10" text-anchor="end" fill="#57606a" font-weight="normal">svm_rbf</text>
<rect x="160" y="212.0" width="327.9" height="21.1" fill="#0969da" rx="2"/>
<text x="492.9" y="225.5" font-size="10" text-anchor="start" fill="#57606a" font-weight="normal">0.599</text>
<text x="152.0" y="263.8" font-size="10" text-anchor="end" fill="#57606a" font-weight="normal">knn</text>
<rect x="160" y="250.3" width="265.0" height="21.1" fill="#0969da" rx="2"/>
<text x="430.0" y="263.8" font-size="10" text-anchor="start" fill="#57606a" font-weight="normal">0.580</text>
</svg>