<svg xmlns="http://www.w3.org/2000/svg" viewBox="0 0 860 460" font-family="-apple-system,Segoe UI,Helvetica,Arial,sans-serif">
<text x="430.0" y="20.0" font-size="14" text-anchor="middle" fill="#57606a" font-weight="bold">Replay sesji: gdzie model wysyla ALERT vs realne szczyty</text>
<text x="430.0" y="36.0" font-size="9" text-anchor="middle" fill="#57606a" font-weight="normal">PRAWDZIWA sesja 2026-06-19 (out-of-sample) - model jej nie widzial na treningu</text>
<text x="55.0" y="44.0" font-size="10" text-anchor="start" fill="#57606a" font-weight="bold">Cena (PLN)</text>
<rect x="43.1" y="50" width="23.8" height="200.0" fill="#fff1e5"/>
<rect x="67.6" y="50" width="23.8" height="200.0" fill="#fff1e5"/>
<rect x="116.7" y="50" width="23.8" height="200.0" fill="#fff1e5"/>
<rect x="141.2" y="50" width="23.8" height="200.0" fill="#fff1e5"/>
<rect x="165.8" y="50" width="23.8" height="200.0" fill="#fff1e5"/>
<rect x="190.3" y="50" width="23.8" height="200.0" fill="#fff1e5"/>
<rect x="214.8" y="50" width="23.8" height="200.0" fill="#fff1e5"/>
<rect x="239.4" y="50" width="23.8" height="200.0" fill="#fff1e5"/>
<rect x="263.9" y="50" width="23.8" height="200.0" fill="#fff1e5"/>
<rect x="312.9" y="50" width="23.8" height="200.0" fill="#fff1e5"/>
<rect x="362.0" y="50" width="23.8" height="200.0" fill="#fff1e5"/>
<rect x="386.5" y="50" width="23.8" height="200.0" fill="#fff1e5"/>
<rect x="411.1" y="50" width="23.8" height="200.0" fill="#fff1e5"/>
<rect x="435.6" y="50" width="23.8" height="200.0" fill="#fff1e5"/>
<rect x="460.1" y="50" width="23.8" height="200.0" fill="#fff1e5"/>
<rect x="484.7" y="50" width="23.8" height="200.0" fill="#fff1e5"/>
<rect x="509.2" y="50" width="23.8" height="200.0" fill="#fff1e5"/>
<rect x="533.7" y="50" width="23.8" height="200.0" fill="#fff1e5"/>
<rect x="607.3" y="50" width="23.8" height="200.0" fill="#fff1e5"/>
<rect x="631.9" y="50" width="23.8" height="200.0" fill="#fff1e5"/>
<rect x="656.4" y="50" width="23.8" height="200.0" fill="#fff1e5"/>
<rect x="680.9" y="50" width="23.8" height="200.0" fill="#fff1e5"/>
<rect x="705.4" y="50" width="23.8" height="200.0" fill="#fff1e5"/>
<rect x="730.0" y="50" width="23.8" height="200.0" fill="#fff1e5"/>
<polyline fill="none" stroke="#0969da" stroke-width="2" points="55.0,101.0 79.5,101.0 104.1,96.4 128.6,77.7 153.1,77.7 177.7,77.7 202.2,73.1 226.7,73.1 251.2,87.1 275.8,77.7 300.3,91.7 324.8,82.4 349.4,96.4 373.9,82.4 398.4,82.4 423.0,91.7 447.5,91.7 472.0,96.4 496.6,105.7 521.1,119.7 545.6,171.0 570.2,226.9 594.7,185.0 619.2,147.7 643.8,157.0 668.3,161.7 692.8,166.3 717.3,152.3 741.9,152.3 766.4,152.3 790.9,157.0 815.5,175.6 840.0,171.0"/>
<circle cx="202.2" cy="73.1" r="5" fill="#cf222e"/>
<text x="202.2" y="63.1" font-size="9" text-anchor="middle" fill="#cf222e" font-weight="bold">szczyt dnia</text>
<polygon points="75.5,90.0 83.5,90.0 79.5,97.0" fill="#1a7f37"/>
<polygon points="100.1,85.4 108.1,85.4 104.1,92.4" fill="#1a7f37"/>
<polygon points="124.6,66.7 132.6,66.7 128.6,73.7" fill="#1a7f37"/>
<polygon points="149.1,66.7 157.1,66.7 153.1,73.7" fill="#1a7f37"/>
<polygon points="173.7,66.7 181.7,66.7 177.7,73.7" fill="#1a7f37"/>
<polygon points="198.2,62.1 206.2,62.1 202.2,69.1" fill="#1a7f37"/>
<polygon points="222.7,62.1 230.7,62.1 226.7,69.1" fill="#1a7f37"/>
<polygon points="271.8,66.7 279.8,66.7 275.8,73.7" fill="#1a7f37"/>
<polygon points="320.8,71.4 328.8,71.4 324.8,78.4" fill="#1a7f37"/>
<polygon points="369.9,71.4 377.9,71.4 373.9,78.4" fill="#1a7f37"/>
<polygon points="590.7,174.0 598.7,174.0 594.7,181.0" fill="#1a7f37"/>
<polygon points="615.2,136.7 623.2,136.7 619.2,143.7" fill="#1a7f37"/>
<polygon points="664.3,150.7 672.3,150.7 668.3,157.7" fill="#1a7f37"/>
<polygon points="688.8,155.3 696.8,155.3 692.8,162.3" fill="#1a7f37"/>
<polygon points="713.3,141.3 721.3,141.3 717.3,148.3" fill="#1a7f37"/>
<polygon points="737.9,141.3 745.9,141.3 741.9,148.3" fill="#1a7f37"/>
<polygon points="762.4,141.3 770.4,141.3 766.4,148.3" fill="#1a7f37"/>
<polygon points="786.9,146.0 794.9,146.0 790.9,153.0" fill="#1a7f37"/>
<polygon points="836.0,160.0 844.0,160.0 840.0,167.0" fill="#1a7f37"/>
<text x="55.0" y="264.0" font-size="8" text-anchor="middle" fill="#57606a" font-weight="normal">09:00</text>
<text x="153.1" y="264.0" font-size="8" text-anchor="middle" fill="#57606a" font-weight="normal">10:00</text>
<text x="251.2" y="264.0" font-size="8" text-anchor="middle" fill="#57606a" font-weight="normal">11:00</text>
<text x="349.4" y="264.0" font-size="8" text-anchor="middle" fill="#57606a" font-weight="normal">12:00</text>
<text x="447.5" y="264.0" font-size="8" text-anchor="middle" fill="#57606a" font-weight="normal">13:00</text>
<text x="545.6" y="264.0" font-size="8" text-anchor="middle" fill="#57606a" font-weight="normal">14:00</text>
<text x="643.8" y="264.0" font-size="8" text-anchor="middle" fill="#57606a" font-weight="normal">15:00</text>
<text x="741.9" y="264.0" font-size="8" text-anchor="middle" fill="#57606a" font-weight="normal">16:00</text>
<text x="840.0" y="264.0" font-size="8" text-anchor="middle" fill="#57606a" font-weight="normal">17:00</text>
<text x="55.0" y="294.0" font-size="10" text-anchor="start" fill="#57606a" font-weight="bold">Prawdopodobienstwo szczytu</text>
<line x1="55" y1="420.0" x2="840" y2="420.0" stroke="#d0d7de" stroke-width="1"/>
<text x="49.0" y="423.0" font-size="8" text-anchor="end" fill="#57606a" font-weight="normal">0%</text>
<line x1="55" y1="360.0" x2="840" y2="360.0" stroke="#d0d7de" stroke-width="1"/>
<text x="49.0" y="363.0" font-size="8" text-anchor="end" fill="#57606a" font-weight="normal">50%</text>
<line x1="55" y1="300.0" x2="840" y2="300.0" stroke="#d0d7de" stroke-width="1"/>
<text x="49.0" y="303.0" font-size="8" text-anchor="end" fill="#57606a" font-weight="normal">100%</text>
<line x1="55" y1="348.0" x2="840" y2="348.0" stroke="#cf222e" stroke-width="1.5" stroke-dasharray="5 3"/>
<text x="840.0" y="344.0" font-size="9" text-anchor="end" fill="#cf222e" font-weight="normal">prog 60%</text>
<polyline fill="none" stroke="#8250df" stroke-width="2" points="55.0,352.8 79.5,341.7 104.1,338.6 128.6,324.9 153.1,341.7 177.7,336.6 202.2,332.6 226.7,335.5 251.2,359.8 275.8,337.6 300.3,361.4 324.8,341.0 349.4,363.9 373.9,332.3 398.4,349.1 423.0,355.8 447.5,348.5 472.0,350.4 496.6,358.9 521.1,365.4 545.6,393.4 570.2,408.9 594.7,324.5 619.2,319.7 643.8,354.3 668.3,340.6 692.8,333.4 717.3,323.4 741.9,338.8 766.4,337.2 790.9,342.7 815.5,363.1 840.0,347.0"/>
<circle cx="55.0" cy="352.8" r="2.5" fill="#afb8c1"/>
<circle cx="79.5" cy="341.7" r="2.5" fill="#1a7f37"/>
<circle cx="104.1" cy="338.6" r="2.5" fill="#1a7f37"/>
<circle cx="128.6" cy="324.9" r="2.5" fill="#1a7f37"/>
<circle cx="153.1" cy="341.7" r="2.5" fill="#1a7f37"/>
<circle cx="177.7" cy="336.6" r="2.5" fill="#1a7f37"/>
<circle cx="202.2" cy="332.6" r="2.5" fill="#1a7f37"/>
<circle cx="226.7" cy="335.5" r="2.5" fill="#1a7f37"/>
<circle cx="251.2" cy="359.8" r="2.5" fill="#afb8c1"/>
<circle cx="275.8" cy="337.6" r="2.5" fill="#1a7f37"/>
<circle cx="300.3" cy="361.4" r="2.5" fill="#afb8c1"/>
<circle cx="324.8" cy="341.0" r="2.5" fill="#1a7f37"/>
<circle cx="349.4" cy="363.9" r="2.5" fill="#afb8c1"/>
<circle cx="373.9" cy="332.3" r="2.5" fill="#1a7f37"/>
<circle cx="398.4" cy="349.1" r="2.5" fill="#afb8c1"/>
<circle cx="423.0" cy="355.8" r="2.5" fill="#afb8c1"/>
<circle cx="447.5" cy="348.5" r="2.5" fill="#afb8c1"/>
<circle cx="472.0" cy="350.4" r="2.5" fill="#afb8c1"/>
<circle cx="496.6" cy="358.9" r="2.5" fill="#afb8c1"/>
<circle cx="521.1" cy="365.4" r="2.5" fill="#afb8c1"/>
<circle cx="545.6" cy="393.4" r="2.5" fill="#afb8c1"/>
<circle cx="570.2" cy="408.9" r="2.5" fill="#afb8c1"/>
<circle cx="594.7" cy="324.5" r="2.5" fill="#1a7f37"/>
<circle cx="619.2" cy="319.7" r="2.5" fill="#1a7f37"/>
<circle cx="643.8" cy="354.3" r="2.5" fill="#afb8c1"/>
<circle cx="668.3" cy="340.6" r="2.5" fill="#1a7f37"/>
<circle cx="692.8" cy="333.4" r="2.5" fill="#1a7f37"/>
<circle cx="717.3" cy="323.4" r="2.5" fill="#1a7f37"/>
<circle cx="741.9" cy="338.8" r="2.5" fill="#1a7f37"/>
<circle cx="766.4" cy="337.2" r="2.5" fill="#1a7f37"/>
<circle cx="790.9" cy="342.7" r="2.5" fill="#1a7f37"/>
<circle cx="815.5" cy="363.1" r="2.5" fill="#afb8c1"/>
<circle cx="840.0" cy="347.0" r="2.5" fill="#1a7f37"/>
<rect x="55" y="443" width="14" height="9" fill="#fff1e5" stroke="#bc4c00" stroke-width="0.5"/>
<text x="73.0" y="451.0" font-size="9" text-anchor="start" fill="#57606a" font-weight="normal">realny moment sprzedazy (target=1)</text>
<polygon points="305,443 313,443 309,450" fill="#1a7f37"/>
<text x="319.0" y="451.0" font-size="9" text-anchor="start" fill="#57606a" font-weight="normal">alert modelu</text>
<circle cx="415" cy="448" r="4" fill="#cf222e"/>
<text x="425.0" y="451.0" font-size="9" text-anchor="start" fill="#57606a" font-weight="normal">szczyt dnia</text>
</svg>