<svg xmlns="http://www.w3.org/2000/svg" viewBox="0 0 860 460" font-family="-apple-system,Segoe UI,Helvetica,Arial,sans-serif">
<text x="430.0" y="20.0" font-size="14" text-anchor="middle" fill="#57606a" font-weight="bold">Replay sesji: gdzie model wysyla ALERT vs realne szczyty</text>
<text x="430.0" y="36.0" font-size="9" text-anchor="middle" fill="#cf222e" font-weight="normal">sesja ILUSTRACYJNA (syntetyczna, seed=42) - pokazuje mechanizm, nie realne notowania</text>
<text x="55.0" y="44.0" font-size="10" text-anchor="start" fill="#57606a" font-weight="bold">Cena (PLN)</text>
<rect x="67.6" y="50" width="23.8" height="200.0" fill="#fff1e5"/>
<rect x="92.2" y="50" width="23.8" height="200.0" fill="#fff1e5"/>
<rect x="116.7" y="50" width="23.8" height="200.0" fill="#fff1e5"/>
<rect x="141.2" y="50" width="23.8" height="200.0" fill="#fff1e5"/>
<rect x="165.8" y="50" width="23.8" height="200.0" fill="#fff1e5"/>
<rect x="190.3" y="50" width="23.8" height="200.0" fill="#fff1e5"/>
<rect x="214.8" y="50" width="23.8" height="200.0" fill="#fff1e5"/>
<rect x="239.4" y="50" width="23.8" height="200.0" fill="#fff1e5"/>
<rect x="263.9" y="50" width="23.8" height="200.0" fill="#fff1e5"/>
<rect x="288.4" y="50" width="23.8" height="200.0" fill="#fff1e5"/>
<rect x="312.9" y="50" width="23.8" height="200.0" fill="#fff1e5"/>
<rect x="337.5" y="50" width="23.8" height="200.0" fill="#fff1e5"/>
<rect x="362.0" y="50" width="23.8" height="200.0" fill="#fff1e5"/>
<rect x="705.4" y="50" width="23.8" height="200.0" fill="#fff1e5"/>
<polyline fill="none" stroke="#0969da" stroke-width="2" points="55.0,93.0 79.5,81.4 104.1,73.1 128.6,79.0 153.1,103.0 177.7,119.1 202.2,116.4 226.7,133.1 251.2,146.8 275.8,165.1 300.3,174.6 324.8,191.6 349.4,204.7 373.9,210.4 398.4,226.9 423.0,221.2 447.5,215.3 472.0,208.0 496.6,206.0 521.1,185.9 545.6,178.6 570.2,175.5 594.7,179.5 619.2,178.8 643.8,169.2 668.3,157.9 692.8,147.9 717.3,142.1 741.9,148.4 766.4,144.3 790.9,150.5 815.5,158.2 840.0,155.6"/>
<circle cx="104.1" cy="73.1" r="5" fill="#cf222e"/>
<text x="104.1" y="63.1" font-size="9" text-anchor="middle" fill="#cf222e" font-weight="bold">szczyt dnia</text>
<polygon points="51.0,82.0 59.0,82.0 55.0,89.0" fill="#1a7f37"/>
<polygon points="75.5,70.4 83.5,70.4 79.5,77.4" fill="#1a7f37"/>
<polygon points="100.1,62.1 108.1,62.1 104.1,69.1" fill="#1a7f37"/>
<polygon points="124.6,68.0 132.6,68.0 128.6,75.0" fill="#1a7f37"/>
<polygon points="149.1,92.0 157.1,92.0 153.1,99.0" fill="#1a7f37"/>
<polygon points="173.7,108.1 181.7,108.1 177.7,115.1" fill="#1a7f37"/>
<polygon points="198.2,105.4 206.2,105.4 202.2,112.4" fill="#1a7f37"/>
<polygon points="222.7,122.1 230.7,122.1 226.7,129.1" fill="#1a7f37"/>
<polygon points="247.2,135.8 255.2,135.8 251.2,142.8" fill="#1a7f37"/>
<polygon points="271.8,154.1 279.8,154.1 275.8,161.1" fill="#1a7f37"/>
<polygon points="296.3,163.6 304.3,163.6 300.3,170.6" fill="#1a7f37"/>
<polygon points="320.8,180.6 328.8,180.6 324.8,187.6" fill="#1a7f37"/>
<polygon points="345.4,193.7 353.4,193.7 349.4,200.7" fill="#1a7f37"/>
<polygon points="369.9,199.4 377.9,199.4 373.9,206.4" fill="#1a7f37"/>
<polygon points="394.4,215.9 402.4,215.9 398.4,222.9" fill="#1a7f37"/>
<text x="55.0" y="264.0" font-size="8" text-anchor="middle" fill="#57606a" font-weight="normal">09:00</text>
<text x="153.1" y="264.0" font-size="8" text-anchor="middle" fill="#57606a" font-weight="normal">10:00</text>
<text x="251.2" y="264.0" font-size="8" text-anchor="middle" fill="#57606a" font-weight="normal">11:00</text>
<text x="349.4" y="264.0" font-size="8" text-anchor="middle" fill="#57606a" font-weight="normal">12:00</text>
<text x="447.5" y="264.0" font-size="8" text-anchor="middle" fill="#57606a" font-weight="normal">13:00</text>
<text x="545.6" y="264.0" font-size="8" text-anchor="middle" fill="#57606a" font-weight="normal">14:00</text>
<text x="643.8" y="264.0" font-size="8" text-anchor="middle" fill="#57606a" font-weight="normal">15:00</text>
<text x="741.9" y="264.0" font-size="8" text-anchor="middle" fill="#57606a" font-weight="normal">16:00</text>
<text x="840.0" y="264.0" font-size="8" text-anchor="middle" fill="#57606a" font-weight="normal">17:00</text>
<text x="55.0" y="294.0" font-size="10" text-anchor="start" fill="#57606a" font-weight="bold">Prawdopodobienstwo szczytu</text>
<line x1="55" y1="420.0" x2="840" y2="420.0" stroke="#d0d7de" stroke-width="1"/>
<text x="49.0" y="423.0" font-size="8" text-anchor="end" fill="#57606a" font-weight="normal">0%</text>
<line x1="55" y1="360.0" x2="840" y2="360.0" stroke="#d0d7de" stroke-width="1"/>
<text x="49.0" y="363.0" font-size="8" text-anchor="end" fill="#57606a" font-weight="normal">50%</text>
<line x1="55" y1="300.0" x2="840" y2="300.0" stroke="#d0d7de" stroke-width="1"/>
<text x="49.0" y="303.0" font-size="8" text-anchor="end" fill="#57606a" font-weight="normal">100%</text>
<line x1="55" y1="348.0" x2="840" y2="348.0" stroke="#cf222e" stroke-width="1.5" stroke-dasharray="5 3"/>
<text x="840.0" y="344.0" font-size="9" text-anchor="end" fill="#cf222e" font-weight="normal">prog 60%</text>
<polyline fill="none" stroke="#8250df" stroke-width="2" points="55.0,323.7 79.5,328.5 104.1,330.8 128.6,326.9 153.1,323.5 177.7,324.6 202.2,332.7 226.7,324.1 251.2,324.8 275.8,327.5 300.3,335.4 324.8,329.4 349.4,337.0 373.9,346.3 398.4,346.5 423.0,369.6 447.5,380.4 472.0,386.8 496.6,386.5 521.1,398.7 545.6,395.1 570.2,391.7 594.7,385.0 619.2,384.4 643.8,383.0 668.3,378.8 692.8,374.8 717.3,373.9 741.9,359.3 766.4,366.0 790.9,360.6 815.5,361.0 840.0,367.8"/>
<circle cx="55.0" cy="323.7" r="2.5" fill="#1a7f37"/>
<circle cx="79.5" cy="328.5" r="2.5" fill="#1a7f37"/>
<circle cx="104.1" cy="330.8" r="2.5" fill="#1a7f37"/>
<circle cx="128.6" cy="326.9" r="2.5" fill="#1a7f37"/>
<circle cx="153.1" cy="323.5" r="2.5" fill="#1a7f37"/>
<circle cx="177.7" cy="324.6" r="2.5" fill="#1a7f37"/>
<circle cx="202.2" cy="332.7" r="2.5" fill="#1a7f37"/>
<circle cx="226.7" cy="324.1" r="2.5" fill="#1a7f37"/>
<circle cx="251.2" cy="324.8" r="2.5" fill="#1a7f37"/>
<circle cx="275.8" cy="327.5" r="2.5" fill="#1a7f37"/>
<circle cx="300.3" cy="335.4" r="2.5" fill="#1a7f37"/>
<circle cx="324.8" cy="329.4" r="2.5" fill="#1a7f37"/>
<circle cx="349.4" cy="337.0" r="2.5" fill="#1a7f37"/>
<circle cx="373.9" cy="346.3" r="2.5" fill="#1a7f37"/>
<circle cx="398.4" cy="346.5" r="2.5" fill="#1a7f37"/>
<circle cx="423.0" cy="369.6" r="2.5" fill="#afb8c1"/>
<circle cx="447.5" cy="380.4" r="2.5" fill="#afb8c1"/>
<circle cx="472.0" cy="386.8" r="2.5" fill="#afb8c1"/>
<circle cx="496.6" cy="386.5" r="2.5" fill="#afb8c1"/>
<circle cx="521.1" cy="398.7" r="2.5" fill="#afb8c1"/>
<circle cx="545.6" cy="395.1" r="2.5" fill="#afb8c1"/>
<circle cx="570.2" cy="391.7" r="2.5" fill="#afb8c1"/>
<circle cx="594.7" cy="385.0" r="2.5" fill="#afb8c1"/>
<circle cx="619.2" cy="384.4" r="2.5" fill="#afb8c1"/>
<circle cx="643.8" cy="383.0" r="2.5" fill="#afb8c1"/>
<circle cx="668.3" cy="378.8" r="2.5" fill="#afb8c1"/>
<circle cx="692.8" cy="374.8" r="2.5" fill="#afb8c1"/>
<circle cx="717.3" cy="373.9" r="2.5" fill="#afb8c1"/>
<circle cx="741.9" cy="359.3" r="2.5" fill="#afb8c1"/>
<circle cx="766.4" cy="366.0" r="2.5" fill="#afb8c1"/>
<circle cx="790.9" cy="360.6" r="2.5" fill="#afb8c1"/>
<circle cx="815.5" cy="361.0" r="2.5" fill="#afb8c1"/>
<circle cx="840.0" cy="367.8" r="2.5" fill="#afb8c1"/>
<rect x="55" y="443" width="14" height="9" fill="#fff1e5" stroke="#bc4c00" stroke-width="0.5"/>
<text x="73.0" y="451.0" font-size="9" text-anchor="start" fill="#57606a" font-weight="normal">realny moment sprzedazy (target=1)</text>
<polygon points="305,443 313,443 309,450" fill="#1a7f37"/>
<text x="319.0" y="451.0" font-size="9" text-anchor="start" fill="#57606a" font-weight="normal">alert modelu</text>
<circle cx="415" cy="448" r="4" fill="#cf222e"/>
<text x="425.0" y="451.0" font-size="9" text-anchor="start" fill="#57606a" font-weight="normal">szczyt dnia</text>
</svg>