<svg xmlns="http://www.w3.org/2000/svg" viewBox="0 0 720 340" font-family="-apple-system,Segoe UI,Helvetica,Arial,sans-serif">
<text x="360.0" y="20.0" font-size="13" text-anchor="middle" fill="#57606a" font-weight="bold">Co mierzy ROC AUC: rozdzielenie wynikow modelu dla obu klas</text>
<text x="360.0" y="38.0" font-size="9" text-anchor="middle" fill="#57606a" font-weight="normal">AUC = szansa, ze losowy 'moment sprzedazy' dostaje WYZSZY wynik niz losowy 'nie-szczyt'</text>
<text x="360.0" y="52.0" font-size="9" text-anchor="middle" fill="#57606a" font-weight="normal">Im mniejsze nakladanie sie slupkow, tym wyzszy AUC.</text>
<rect x="51.0" y="300.0" width="31.5" height="0.0" fill="#afb8c1" opacity="0.9"/>
<rect x="82.5" y="300.0" width="31.5" height="0.0" fill="#bc4c00" opacity="0.9"/>
<rect x="116.0" y="277.0" width="31.5" height="23.0" fill="#afb8c1" opacity="0.9"/>
<rect x="147.5" y="300.0" width="31.5" height="0.0" fill="#bc4c00" opacity="0.9"/>
<rect x="181.0" y="162.0" width="31.5" height="138.0" fill="#afb8c1" opacity="0.9"/>
<rect x="212.5" y="300.0" width="31.5" height="0.0" fill="#bc4c00" opacity="0.9"/>
<rect x="246.0" y="208.0" width="31.5" height="92.0" fill="#afb8c1" opacity="0.9"/>
<rect x="277.5" y="277.0" width="31.5" height="23.0" fill="#bc4c00" opacity="0.9"/>
<rect x="311.0" y="185.0" width="31.5" height="115.0" fill="#afb8c1" opacity="0.9"/>
<rect x="342.5" y="300.0" width="31.5" height="0.0" fill="#bc4c00" opacity="0.9"/>
<rect x="376.0" y="277.0" width="31.5" height="23.0" fill="#afb8c1" opacity="0.9"/>
<rect x="407.5" y="300.0" width="31.5" height="0.0" fill="#bc4c00" opacity="0.9"/>
<rect x="441.0" y="277.0" width="31.5" height="23.0" fill="#afb8c1" opacity="0.9"/>
<rect x="472.5" y="254.0" width="31.5" height="46.0" fill="#bc4c00" opacity="0.9"/>
<rect x="506.0" y="300.0" width="31.5" height="0.0" fill="#afb8c1" opacity="0.9"/>
<rect x="537.5" y="70.0" width="31.5" height="230.0" fill="#bc4c00" opacity="0.9"/>
<rect x="571.0" y="277.0" width="31.5" height="23.0" fill="#afb8c1" opacity="0.9"/>
<rect x="602.5" y="277.0" width="31.5" height="23.0" fill="#bc4c00" opacity="0.9"/>
<rect x="636.0" y="300.0" width="31.5" height="0.0" fill="#afb8c1" opacity="0.9"/>
<rect x="667.5" y="300.0" width="31.5" height="0.0" fill="#bc4c00" opacity="0.9"/>
<line x1="50" y1="300.0" x2="700" y2="300.0" stroke="#8b949e" stroke-width="1"/>
<text x="50.0" y="314.0" font-size="8" text-anchor="middle" fill="#57606a" font-weight="normal">0.0</text>
<text x="115.0" y="314.0" font-size="8" text-anchor="middle" fill="#57606a" font-weight="normal">0.1</text>
<text x="180.0" y="314.0" font-size="8" text-anchor="middle" fill="#57606a" font-weight="normal">0.2</text>
<text x="245.0" y="314.0" font-size="8" text-anchor="middle" fill="#57606a" font-weight="normal">0.3</text>
<text x="310.0" y="314.0" font-size="8" text-anchor="middle" fill="#57606a" font-weight="normal">0.4</text>
<text x="375.0" y="314.0" font-size="8" text-anchor="middle" fill="#57606a" font-weight="normal">0.5</text>
<text x="440.0" y="314.0" font-size="8" text-anchor="middle" fill="#57606a" font-weight="normal">0.6</text>
<text x="505.0" y="314.0" font-size="8" text-anchor="middle" fill="#57606a" font-weight="normal">0.7</text>
<text x="570.0" y="314.0" font-size="8" text-anchor="middle" fill="#57606a" font-weight="normal">0.8</text>
<text x="635.0" y="314.0" font-size="8" text-anchor="middle" fill="#57606a" font-weight="normal">0.9</text>
<text x="700.0" y="314.0" font-size="8" text-anchor="middle" fill="#57606a" font-weight="normal">1.0</text>
<text x="360.0" y="332.0" font-size="9" text-anchor="middle" fill="#57606a" font-weight="normal">wynik modelu = prawdopodobienstwo szczytu</text>
<rect x="50" y="68" width="12" height="9" fill="#bc4c00"/>
<text x="66.0" y="76.0" font-size="9" text-anchor="start" fill="#57606a" font-weight="normal">realny moment sprzedazy (target=1)</text>
<rect x="280" y="68" width="12" height="9" fill="#afb8c1"/>
<text x="296.0" y="76.0" font-size="9" text-anchor="start" fill="#57606a" font-weight="normal">nie-szczyt (target=0)</text>
</svg>