<svg xmlns="http://www.w3.org/2000/svg" viewBox="0 0 460 440" font-family="-apple-system,Segoe UI,Helvetica,Arial,sans-serif">
<text x="230.0" y="20.0" font-size="14" text-anchor="middle" fill="#57606a" font-weight="bold">Krzywa ROC</text>
<text x="230.0" y="36.0" font-size="9" text-anchor="middle" fill="#57606a" font-weight="normal">im wyzej i lewiej, tym lepiej (wieksze pole pod krzywa = AUC)</text>
<line x1="55.0" y1="390.0" x2="55.0" y2="50.0" stroke="#d0d7de" stroke-width="0.7"/>
<line x1="55.0" y1="390.0" x2="440.0" y2="390.0" stroke="#d0d7de" stroke-width="0.7"/>
<text x="55.0" y="404.0" font-size="8" text-anchor="middle" fill="#57606a" font-weight="normal">0.00</text>
<text x="49.0" y="393.0" font-size="8" text-anchor="end" fill="#57606a" font-weight="normal">0.00</text>
<line x1="151.2" y1="390.0" x2="151.2" y2="50.0" stroke="#d0d7de" stroke-width="0.7"/>
<line x1="55.0" y1="305.0" x2="440.0" y2="305.0" stroke="#d0d7de" stroke-width="0.7"/>
<text x="151.2" y="404.0" font-size="8" text-anchor="middle" fill="#57606a" font-weight="normal">0.25</text>
<text x="49.0" y="308.0" font-size="8" text-anchor="end" fill="#57606a" font-weight="normal">0.25</text>
<line x1="247.5" y1="390.0" x2="247.5" y2="50.0" stroke="#d0d7de" stroke-width="0.7"/>
<line x1="55.0" y1="220.0" x2="440.0" y2="220.0" stroke="#d0d7de" stroke-width="0.7"/>
<text x="247.5" y="404.0" font-size="8" text-anchor="middle" fill="#57606a" font-weight="normal">0.50</text>
<text x="49.0" y="223.0" font-size="8" text-anchor="end" fill="#57606a" font-weight="normal">0.50</text>
<line x1="343.8" y1="390.0" x2="343.8" y2="50.0" stroke="#d0d7de" stroke-width="0.7"/>
<line x1="55.0" y1="135.0" x2="440.0" y2="135.0" stroke="#d0d7de" stroke-width="0.7"/>
<text x="343.8" y="404.0" font-size="8" text-anchor="middle" fill="#57606a" font-weight="normal">0.75</text>
<text x="49.0" y="138.0" font-size="8" text-anchor="end" fill="#57606a" font-weight="normal">0.75</text>
<line x1="440.0" y1="390.0" x2="440.0" y2="50.0" stroke="#d0d7de" stroke-width="0.7"/>
<line x1="55.0" y1="50.0" x2="440.0" y2="50.0" stroke="#d0d7de" stroke-width="0.7"/>
<text x="440.0" y="404.0" font-size="8" text-anchor="middle" fill="#57606a" font-weight="normal">1.00</text>
<text x="49.0" y="53.0" font-size="8" text-anchor="end" fill="#57606a" font-weight="normal">1.00</text>
<line x1="55.0" y1="390.0" x2="440.0" y2="50.0" stroke="#cf222e" stroke-width="1.5" stroke-dasharray="5 3"/>
<text x="332.2" y="179.2" font-size="9" text-anchor="start" fill="#cf222e" font-weight="normal">losowy (0.50)</text>
<polyline fill="none" stroke="#0969da" stroke-width="2" stroke-dasharray="2 2" points="55.0,390.0 62.7,351.6 70.4,333.5 78.1,319.2 85.8,306.9 93.5,295.8 101.2,285.8 108.9,276.4 116.6,267.6 124.3,259.3 132.0,251.4 139.7,243.9 147.4,236.6 155.1,229.6 162.8,222.8 170.5,216.3 178.2,209.9 185.9,203.7 193.6,197.7 201.3,191.8 209.0,186.0 216.7,180.4 224.4,174.9 232.1,169.5 239.8,164.2 247.5,159.0 255.2,153.9 262.9,148.9 270.6,143.9 278.3,139.1 286.0,134.3 293.7,129.6 301.4,124.9 309.1,120.3 316.8,115.8 324.5,111.3 332.2,106.9 339.9,102.6 347.6,98.2 355.3,94.0 363.0,89.8 370.7,85.6 378.4,81.5 386.1,77.4 393.8,73.4 401.5,69.4 409.2,65.4 416.9,61.5 424.6,57.7 432.3,53.8 440.0,50.0"/>
<text x="266.8" y="138.4" font-size="9" text-anchor="start" fill="#0969da" font-weight="bold">realny backtest ~0.642</text>
<polyline fill="none" stroke="#1a7f37" stroke-width="2.5" points="55.0,390.0 55.0,365.7 75.3,365.7 75.3,74.3 217.1,74.3 217.1,50.0 440.0,50.0"/>
<text x="170.5" y="63.6" font-size="9" text-anchor="start" fill="#1a7f37" font-weight="bold">sesja testowa (AUC 0.92)</text>
<text x="230.0" y="414.0" font-size="10" text-anchor="middle" fill="#57606a" font-weight="normal">FPR (falszywe alarmy / nie-szczyty)</text>
<text x="16" y="220.0" font-size="10" text-anchor="middle" fill="#57606a" transform="rotate(-90 16 220.0)">TPR (zlapane momenty sprzedazy)</text>
</svg>