<svg xmlns="http://www.w3.org/2000/svg" viewBox="0 0 720 340" font-family="-apple-system,Segoe UI,Helvetica,Arial,sans-serif">
<text x="360.0" y="18.0" font-size="13" text-anchor="middle" fill="#57606a" font-weight="bold">ROC AUC dla KAZDEGO dnia testowego (split 80/20)</text>
<text x="360.0" y="36.0" font-size="10" text-anchor="middle" fill="#1a7f37" font-weight="bold">7/8 dni powyzej 0.50 (losowego)</text>
<line x1="50" y1="290.0" x2="700" y2="290.0" stroke="#d0d7de" stroke-width="1"/>
<text x="42.0" y="294.0" font-size="9" text-anchor="end" fill="#57606a" font-weight="normal">0.00</text>
<line x1="50" y1="231.5" x2="700" y2="231.5" stroke="#d0d7de" stroke-width="1"/>
<text x="42.0" y="235.5" font-size="9" text-anchor="end" fill="#57606a" font-weight="normal">0.25</text>
<line x1="50" y1="173.0" x2="700" y2="173.0" stroke="#cf222e" stroke-width="1.5" stroke-dasharray="5 3"/>
<text x="42.0" y="177.0" font-size="9" text-anchor="end" fill="#57606a" font-weight="normal">0.50</text>
<line x1="50" y1="114.5" x2="700" y2="114.5" stroke="#d0d7de" stroke-width="1"/>
<text x="42.0" y="118.5" font-size="9" text-anchor="end" fill="#57606a" font-weight="normal">0.75</text>
<line x1="50" y1="56.0" x2="700" y2="56.0" stroke="#d0d7de" stroke-width="1"/>
<text x="42.0" y="60.0" font-size="9" text-anchor="end" fill="#57606a" font-weight="normal">1.00</text>
<text x="700.0" y="169.0" font-size="9" text-anchor="end" fill="#cf222e" font-weight="normal">losowy 0.50</text>
<rect x="66.2" y="221.8" width="48.8" height="68.2" fill="#cf222e" rx="2"/>
<text x="90.6" y="216.8" font-size="8" text-anchor="middle" fill="#57606a" font-weight="normal">0.29</text>
<text x="90.6" y="304.0" font-size="8" text-anchor="end" fill="#57606a" transform="rotate(-45 90.6 304.0)">07-15</text>
<rect x="147.5" y="154.8" width="48.8" height="135.2" fill="#1a7f37" rx="2"/>
<text x="171.9" y="149.8" font-size="8" text-anchor="middle" fill="#57606a" font-weight="normal">0.58</text>
<text x="171.9" y="304.0" font-size="8" text-anchor="end" fill="#57606a" transform="rotate(-45 171.9 304.0)">07-16</text>
<rect x="228.8" y="153.7" width="48.8" height="136.3" fill="#1a7f37" rx="2"/>
<text x="253.1" y="148.7" font-size="8" text-anchor="middle" fill="#57606a" font-weight="normal">0.58</text>
<text x="253.1" y="304.0" font-size="8" text-anchor="end" fill="#57606a" transform="rotate(-45 253.1 304.0)">07-17</text>
<rect x="310.0" y="82.1" width="48.8" height="207.9" fill="#1a7f37" rx="2"/>
<text x="334.4" y="77.1" font-size="8" text-anchor="middle" fill="#57606a" font-weight="normal">0.89</text>
<text x="334.4" y="304.0" font-size="8" text-anchor="end" fill="#57606a" transform="rotate(-45 334.4 304.0)">07-20</text>
<rect x="391.2" y="119.9" width="48.8" height="170.1" fill="#1a7f37" rx="2"/>
<text x="415.6" y="114.9" font-size="8" text-anchor="middle" fill="#57606a" font-weight="normal">0.73</text>
<text x="415.6" y="304.0" font-size="8" text-anchor="end" fill="#57606a" transform="rotate(-45 415.6 304.0)">07-21</text>
<rect x="472.5" y="157.2" width="48.8" height="132.8" fill="#1a7f37" rx="2"/>
<text x="496.9" y="152.2" font-size="8" text-anchor="middle" fill="#57606a" font-weight="normal">0.57</text>
<text x="496.9" y="304.0" font-size="8" text-anchor="end" fill="#57606a" transform="rotate(-45 496.9 304.0)">07-22</text>
<rect x="553.8" y="69.2" width="48.8" height="220.8" fill="#1a7f37" rx="2"/>
<text x="578.1" y="64.2" font-size="8" text-anchor="middle" fill="#57606a" font-weight="normal">0.94</text>
<text x="578.1" y="304.0" font-size="8" text-anchor="end" fill="#57606a" transform="rotate(-45 578.1 304.0)">07-23</text>
<rect x="635.0" y="75.4" width="48.8" height="214.6" fill="#1a7f37" rx="2"/>
<text x="659.4" y="70.4" font-size="8" text-anchor="middle" fill="#57606a" font-weight="normal">0.92</text>
<text x="659.4" y="304.0" font-size="8" text-anchor="end" fill="#57606a" transform="rotate(-45 659.4 304.0)">07-24</text>
</svg>