<svg xmlns="http://www.w3.org/2000/svg" viewBox="0 0 720 320" font-family="-apple-system,Segoe UI,Helvetica,Arial,sans-serif">
<text x="360.0" y="18.0" font-size="13" text-anchor="middle" fill="#57606a" font-weight="bold">Dowod 'lepiej niz losowo': test permutacyjny</text>
<text x="360.0" y="36.0" font-size="9" text-anchor="middle" fill="#57606a" font-weight="normal">szare = 1000 modeli LOSOWYCH (przetasowane etykiety); zielona linia = nasz model</text>
<text x="360.0" y="50.0" font-size="10" text-anchor="middle" fill="#1a7f37" font-weight="bold">p-value = 0.0000  (zaden z 1000 losowych nie pobil naszego wyniku)</text>
<rect x="96.4" y="270.3" width="22.2" height="4.7" fill="#afb8c1"/>
<rect x="119.6" y="267.2" width="22.2" height="7.8" fill="#afb8c1"/>
<rect x="142.9" y="257.8" width="22.2" height="17.2" fill="#afb8c1"/>
<rect x="166.1" y="246.8" width="22.2" height="28.2" fill="#afb8c1"/>
<rect x="189.3" y="224.9" width="22.2" height="50.1" fill="#afb8c1"/>
<rect x="212.5" y="185.8" width="22.2" height="89.2" fill="#afb8c1"/>
<rect x="235.7" y="138.9" width="22.2" height="136.1" fill="#afb8c1"/>
<rect x="258.9" y="77.8" width="22.2" height="197.2" fill="#afb8c1"/>
<rect x="282.1" y="74.7" width="22.2" height="200.3" fill="#afb8c1"/>
<rect x="305.4" y="70.0" width="22.2" height="205.0" fill="#afb8c1"/>
<rect x="328.6" y="88.8" width="22.2" height="186.2" fill="#afb8c1"/>
<rect x="351.8" y="99.7" width="22.2" height="175.3" fill="#afb8c1"/>
<rect x="375.0" y="171.7" width="22.2" height="103.3" fill="#afb8c1"/>
<rect x="398.2" y="192.1" width="22.2" height="82.9" fill="#afb8c1"/>
<rect x="421.4" y="237.4" width="22.2" height="37.6" fill="#afb8c1"/>
<rect x="444.6" y="250.0" width="22.2" height="25.0" fill="#afb8c1"/>
<rect x="467.9" y="262.5" width="22.2" height="12.5" fill="#afb8c1"/>
<rect x="491.1" y="268.7" width="22.2" height="6.3" fill="#afb8c1"/>
<line x1="50" y1="275.0" x2="700" y2="275.0" stroke="#8b949e" stroke-width="1"/>
<line x1="313.5" y1="70" x2="313.5" y2="275.0" stroke="#cf222e" stroke-width="1" stroke-dasharray="3 3"/>
<text x="313.5" y="68.0" font-size="9" text-anchor="middle" fill="#cf222e" font-weight="normal">0.50</text>
<line x1="612.1" y1="70" x2="612.1" y2="275.0" stroke="#1a7f37" stroke-width="2.5"/>
<text x="612.1" y="68.0" font-size="10" text-anchor="middle" fill="#1a7f37" font-weight="bold">nasz model 0.670</text>
<text x="137.8" y="289.0" font-size="9" text-anchor="middle" fill="#57606a" font-weight="normal">0.4</text>
<text x="313.5" y="289.0" font-size="9" text-anchor="middle" fill="#57606a" font-weight="normal">0.5</text>
<text x="489.2" y="289.0" font-size="9" text-anchor="middle" fill="#57606a" font-weight="normal">0.6</text>
<text x="664.9" y="289.0" font-size="9" text-anchor="middle" fill="#57606a" font-weight="normal">0.7</text>
<text x="360.0" y="312.0" font-size="9" text-anchor="middle" fill="#57606a" font-weight="normal">ROC AUC</text>
</svg>