<svg xmlns="http://www.w3.org/2000/svg" viewBox="0 0 720 300" font-family="-apple-system,Segoe UI,Helvetica,Arial,sans-serif">
<text x="360.0" y="18.0" font-size="13" text-anchor="middle" fill="#57606a" font-weight="bold">Formula modelu PEAK: wplyw cech na p(dzienne maksimum)</text>
<text x="360.0" y="36.0" font-size="9" text-anchor="middle" fill="#57606a" font-weight="normal">waga + (zielona) podnosi prawd. szczytu, - (czerwona) obniza; dlugosc = sila</text>
<line x1="400.0" y1="50" x2="400.0" y2="280" stroke="#8b949e" stroke-width="1"/>
<text x="152.0" y="62.6" font-size="10" text-anchor="end" fill="#57606a" font-weight="normal">dist_from_vwap_pct</text>
<rect x="400.0" y="54.3" width="208.7" height="10.5" fill="#1a7f37" rx="2"/>
<text x="614.7" y="62.6" font-size="9" text-anchor="start" fill="#57606a" font-weight="bold">+1.588</text>
<text x="152.0" y="81.8" font-size="10" text-anchor="end" fill="#57606a" font-weight="normal">minute_of_day</text>
<rect x="238.1" y="73.5" width="161.9" height="10.5" fill="#cf222e" rx="2"/>
<text x="232.1" y="81.8" font-size="9" text-anchor="end" fill="#57606a" font-weight="bold">-1.232</text>
<text x="152.0" y="100.9" font-size="10" text-anchor="end" fill="#57606a" font-weight="normal">ret_1</text>
<rect x="400.0" y="92.6" width="55.2" height="10.5" fill="#1a7f37" rx="2"/>
<text x="461.2" y="100.9" font-size="9" text-anchor="start" fill="#57606a" font-weight="bold">+0.420</text>
<text x="152.0" y="120.1" font-size="10" text-anchor="end" fill="#57606a" font-weight="normal">vol_zscore</text>
<rect x="400.0" y="111.8" width="46.5" height="10.5" fill="#1a7f37" rx="2"/>
<text x="452.5" y="120.1" font-size="9" text-anchor="start" fill="#57606a" font-weight="bold">+0.354</text>
<text x="152.0" y="139.2" font-size="10" text-anchor="end" fill="#57606a" font-weight="normal">realized_vol_10d_pct</text>
<rect x="360.8" y="131.0" width="39.2" height="10.5" fill="#cf222e" rx="2"/>
<text x="354.8" y="139.2" font-size="9" text-anchor="end" fill="#57606a" font-weight="bold">-0.298</text>
<text x="152.0" y="158.4" font-size="10" text-anchor="end" fill="#57606a" font-weight="normal">up_streak</text>
<rect x="377.8" y="150.1" width="22.2" height="10.5" fill="#cf222e" rx="2"/>
<text x="371.8" y="158.4" font-size="9" text-anchor="end" fill="#57606a" font-weight="bold">-0.169</text>
<text x="152.0" y="177.6" font-size="10" text-anchor="end" fill="#57606a" font-weight="normal">dist_from_52w_high_pct</text>
<rect x="400.0" y="169.3" width="19.8" height="10.5" fill="#1a7f37" rx="2"/>
<text x="425.8" y="177.6" font-size="9" text-anchor="start" fill="#57606a" font-weight="bold">+0.151</text>
<text x="152.0" y="196.8" font-size="10" text-anchor="end" fill="#57606a" font-weight="normal">ret_5</text>
<rect x="400.0" y="188.5" width="17.6" height="10.5" fill="#1a7f37" rx="2"/>
<text x="423.6" y="196.8" font-size="9" text-anchor="start" fill="#57606a" font-weight="bold">+0.134</text>
<text x="152.0" y="215.9" font-size="10" text-anchor="end" fill="#57606a" font-weight="normal">dow_num</text>
<rect x="400.0" y="207.6" width="13.0" height="10.5" fill="#1a7f37" rx="2"/>
<text x="419.0" y="215.9" font-size="9" text-anchor="start" fill="#57606a" font-weight="bold">+0.099</text>
<text x="152.0" y="235.1" font-size="10" text-anchor="end" fill="#57606a" font-weight="normal">prior_day_ret_pct</text>
<rect x="400.0" y="226.8" width="11.4" height="10.5" fill="#1a7f37" rx="2"/>
<text x="417.4" y="235.1" font-size="9" text-anchor="start" fill="#57606a" font-weight="bold">+0.087</text>
<text x="152.0" y="254.2" font-size="10" text-anchor="end" fill="#57606a" font-weight="normal">gap_pct</text>
<rect x="400.0" y="246.0" width="7.4" height="10.5" fill="#1a7f37" rx="2"/>
<text x="413.4" y="254.2" font-size="9" text-anchor="start" fill="#57606a" font-weight="bold">+0.056</text>
<text x="152.0" y="273.4" font-size="10" text-anchor="end" fill="#57606a" font-weight="normal">rsi_14</text>
<rect x="397.3" y="265.1" width="2.7" height="10.5" fill="#cf222e" rx="2"/>
<text x="391.3" y="273.4" font-size="9" text-anchor="end" fill="#57606a" font-weight="bold">-0.021</text>
</svg>