<svg xmlns="http://www.w3.org/2000/svg" viewBox="0 0 720 300" font-family="-apple-system,Segoe UI,Helvetica,Arial,sans-serif">
<text x="360.0" y="18.0" font-size="13" text-anchor="middle" fill="#57606a" font-weight="bold">Formula modelu: wplyw cech na p(szczyt)</text>
<text x="360.0" y="36.0" font-size="9" text-anchor="middle" fill="#57606a" font-weight="normal">waga + (zielona) podnosi prawd. szczytu, - (czerwona) obniza; dlugosc = sila</text>
<line x1="395.0" y1="50" x2="395.0" y2="280" stroke="#8b949e" stroke-width="1"/>
<text x="142.0" y="62.6" font-size="10" text-anchor="end" fill="#57606a" font-weight="normal">ret_1</text>
<rect x="395.0" y="54.3" width="213.0" height="10.5" fill="#1a7f37" rx="2"/>
<text x="614.0" y="62.6" font-size="9" text-anchor="start" fill="#57606a" font-weight="bold">+0.320</text>
<text x="142.0" y="81.8" font-size="10" text-anchor="end" fill="#57606a" font-weight="normal">dist_from_52w_high_pct</text>
<rect x="183.5" y="73.5" width="211.5" height="10.5" fill="#cf222e" rx="2"/>
<text x="177.5" y="81.8" font-size="9" text-anchor="end" fill="#57606a" font-weight="bold">-0.318</text>
<text x="142.0" y="100.9" font-size="10" text-anchor="end" fill="#57606a" font-weight="normal">dist_from_vwap_pct</text>
<rect x="395.0" y="92.6" width="190.2" height="10.5" fill="#1a7f37" rx="2"/>
<text x="591.2" y="100.9" font-size="9" text-anchor="start" fill="#57606a" font-weight="bold">+0.286</text>
<text x="142.0" y="120.1" font-size="10" text-anchor="end" fill="#57606a" font-weight="normal">up_streak</text>
<rect x="395.0" y="111.8" width="173.1" height="10.5" fill="#1a7f37" rx="2"/>
<text x="574.1" y="120.1" font-size="9" text-anchor="start" fill="#57606a" font-weight="bold">+0.260</text>
<text x="142.0" y="139.2" font-size="10" text-anchor="end" fill="#57606a" font-weight="normal">prior_day_ret_pct</text>
<rect x="241.1" y="131.0" width="153.9" height="10.5" fill="#cf222e" rx="2"/>
<text x="235.1" y="139.2" font-size="9" text-anchor="end" fill="#57606a" font-weight="bold">-0.231</text>
<text x="142.0" y="158.4" font-size="10" text-anchor="end" fill="#57606a" font-weight="normal">ret_5</text>
<rect x="395.0" y="150.1" width="135.0" height="10.5" fill="#1a7f37" rx="2"/>
<text x="536.0" y="158.4" font-size="9" text-anchor="start" fill="#57606a" font-weight="bold">+0.203</text>
<text x="142.0" y="177.6" font-size="10" text-anchor="end" fill="#57606a" font-weight="normal">vol_zscore</text>
<rect x="395.0" y="169.3" width="113.8" height="10.5" fill="#1a7f37" rx="2"/>
<text x="514.8" y="177.6" font-size="9" text-anchor="start" fill="#57606a" font-weight="bold">+0.171</text>
<text x="142.0" y="196.8" font-size="10" text-anchor="end" fill="#57606a" font-weight="normal">rsi_14</text>
<rect x="317.1" y="188.5" width="77.9" height="10.5" fill="#cf222e" rx="2"/>
<text x="311.1" y="196.8" font-size="9" text-anchor="end" fill="#57606a" font-weight="bold">-0.117</text>
<text x="142.0" y="215.9" font-size="10" text-anchor="end" fill="#57606a" font-weight="normal">dow_num</text>
<rect x="329.7" y="207.6" width="65.3" height="10.5" fill="#cf222e" rx="2"/>
<text x="323.7" y="215.9" font-size="9" text-anchor="end" fill="#57606a" font-weight="bold">-0.098</text>
<text x="142.0" y="235.1" font-size="10" text-anchor="end" fill="#57606a" font-weight="normal">minute_of_day</text>
<rect x="332.4" y="226.8" width="62.6" height="10.5" fill="#cf222e" rx="2"/>
<text x="326.4" y="235.1" font-size="9" text-anchor="end" fill="#57606a" font-weight="bold">-0.094</text>
<text x="142.0" y="254.2" font-size="10" text-anchor="end" fill="#57606a" font-weight="normal">realized_vol_10d_pct</text>
<rect x="395.0" y="246.0" width="29.7" height="10.5" fill="#1a7f37" rx="2"/>
<text x="430.7" y="254.2" font-size="9" text-anchor="start" fill="#57606a" font-weight="bold">+0.045</text>
<text x="142.0" y="273.4" font-size="10" text-anchor="end" fill="#57606a" font-weight="normal">gap_pct</text>
<rect x="395.0" y="265.1" width="29.2" height="10.5" fill="#1a7f37" rx="2"/>
<text x="430.2" y="273.4" font-size="9" text-anchor="start" fill="#57606a" font-weight="bold">+0.044</text>
</svg>