<svg xmlns="http://www.w3.org/2000/svg" viewBox="0 0 720 300" font-family="-apple-system,Segoe UI,Helvetica,Arial,sans-serif">
<text x="360.0" y="18.0" font-size="13" text-anchor="middle" fill="#57606a" font-weight="bold">Formula modelu: wplyw cech na p(szczyt)</text>
<text x="360.0" y="36.0" font-size="9" text-anchor="middle" fill="#57606a" font-weight="normal">waga + (zielona) podnosi prawd. szczytu, - (czerwona) obniza; dlugosc = sila</text>
<line x1="395.0" y1="50" x2="395.0" y2="280" stroke="#8b949e" stroke-width="1"/>
<text x="142.0" y="72.2" font-size="10" text-anchor="end" fill="#57606a" font-weight="normal">rsi_14</text>
<rect x="395.0" y="58.6" width="213.0" height="21.1" fill="#1a7f37" rx="2"/>
<text x="614.0" y="72.2" font-size="9" text-anchor="start" fill="#57606a" font-weight="bold">+0.708</text>
<text x="142.0" y="110.5" font-size="10" text-anchor="end" fill="#57606a" font-weight="normal">minute_of_day</text>
<rect x="203.5" y="97.0" width="191.5" height="21.1" fill="#cf222e" rx="2"/>
<text x="197.5" y="110.5" font-size="9" text-anchor="end" fill="#57606a" font-weight="bold">-0.636</text>
<text x="142.0" y="148.8" font-size="10" text-anchor="end" fill="#57606a" font-weight="normal">ret_5</text>
<rect x="281.2" y="135.3" width="113.8" height="21.1" fill="#cf222e" rx="2"/>
<text x="275.2" y="148.8" font-size="9" text-anchor="end" fill="#57606a" font-weight="bold">-0.378</text>
<text x="142.0" y="187.2" font-size="10" text-anchor="end" fill="#57606a" font-weight="normal">ret_1</text>
<rect x="323.8" y="173.6" width="71.2" height="21.1" fill="#cf222e" rx="2"/>
<text x="317.8" y="187.2" font-size="9" text-anchor="end" fill="#57606a" font-weight="bold">-0.237</text>
<text x="142.0" y="225.5" font-size="10" text-anchor="end" fill="#57606a" font-weight="normal">dist_from_vwap_pct</text>
<rect x="329.0" y="212.0" width="66.0" height="21.1" fill="#cf222e" rx="2"/>
<text x="323.0" y="225.5" font-size="9" text-anchor="end" fill="#57606a" font-weight="bold">-0.219</text>
<text x="142.0" y="263.8" font-size="10" text-anchor="end" fill="#57606a" font-weight="normal">vol_zscore</text>
<rect x="395.0" y="250.3" width="5.4" height="21.1" fill="#1a7f37" rx="2"/>
<text x="406.4" y="263.8" font-size="9" text-anchor="start" fill="#57606a" font-weight="bold">+0.018</text>
</svg>