<svg xmlns="http://www.w3.org/2000/svg" viewBox="0 0 720 360" font-family="-apple-system,Segoe UI,Helvetica,Arial,sans-serif">
<text x="360.0" y="20.0" font-size="13" text-anchor="middle" fill="#57606a" font-weight="bold">Tryb peak: faktyczny szczyt vs alert modelu (kazdy dzien)</text>
<text x="360.0" y="38.0" font-size="9" text-anchor="middle" fill="#57606a" font-weight="normal">trafienia w +/-1 swiec: 36% dni | alert odpalil w 9/11 dni</text>
<line x1="90.0" y1="56" x2="90.0" y2="320" stroke="#d0d7de" stroke-width="0.7"/>
<text x="90.0" y="334.0" font-size="8" text-anchor="middle" fill="#57606a" font-weight="normal">9:00</text>
<line x1="166.2" y1="56" x2="166.2" y2="320" stroke="#d0d7de" stroke-width="0.7"/>
<text x="166.2" y="334.0" font-size="8" text-anchor="middle" fill="#57606a" font-weight="normal">10:00</text>
<line x1="242.5" y1="56" x2="242.5" y2="320" stroke="#d0d7de" stroke-width="0.7"/>
<text x="242.5" y="334.0" font-size="8" text-anchor="middle" fill="#57606a" font-weight="normal">11:00</text>
<line x1="318.8" y1="56" x2="318.8" y2="320" stroke="#d0d7de" stroke-width="0.7"/>
<text x="318.8" y="334.0" font-size="8" text-anchor="middle" fill="#57606a" font-weight="normal">12:00</text>
<line x1="395.0" y1="56" x2="395.0" y2="320" stroke="#d0d7de" stroke-width="0.7"/>
<text x="395.0" y="334.0" font-size="8" text-anchor="middle" fill="#57606a" font-weight="normal">13:00</text>
<line x1="471.2" y1="56" x2="471.2" y2="320" stroke="#d0d7de" stroke-width="0.7"/>
<text x="471.2" y="334.0" font-size="8" text-anchor="middle" fill="#57606a" font-weight="normal">14:00</text>
<line x1="547.5" y1="56" x2="547.5" y2="320" stroke="#d0d7de" stroke-width="0.7"/>
<text x="547.5" y="334.0" font-size="8" text-anchor="middle" fill="#57606a" font-weight="normal">15:00</text>
<line x1="623.8" y1="56" x2="623.8" y2="320" stroke="#d0d7de" stroke-width="0.7"/>
<text x="623.8" y="334.0" font-size="8" text-anchor="middle" fill="#57606a" font-weight="normal">16:00</text>
<line x1="700.0" y1="56" x2="700.0" y2="320" stroke="#d0d7de" stroke-width="0.7"/>
<text x="700.0" y="334.0" font-size="8" text-anchor="middle" fill="#57606a" font-weight="normal">17:00</text>
<text x="82.0" y="71.0" font-size="9" text-anchor="end" fill="#57606a" font-weight="normal">06-05</text>
<line x1="299.7" y1="68.0" x2="90.0" y2="68.0" stroke="#bc4c00" stroke-width="1.5"/>
<polygon points="86.0,62.0 94.0,62.0 90.0,69.0" fill="#1a7f37"/>
<circle cx="299.7" cy="68.0" r="4" fill="#cf222e"/>
<text x="82.0" y="95.0" font-size="9" text-anchor="end" fill="#57606a" font-weight="normal">06-08</text>
<line x1="680.9" y1="92.0" x2="109.1" y2="92.0" stroke="#bc4c00" stroke-width="1.5"/>
<polygon points="105.1,86.0 113.1,86.0 109.1,93.0" fill="#1a7f37"/>
<circle cx="680.9" cy="92.0" r="4" fill="#cf222e"/>
<text x="82.0" y="119.0" font-size="9" text-anchor="end" fill="#57606a" font-weight="normal">06-09</text>
<line x1="223.4" y1="116.0" x2="223.4" y2="116.0" stroke="#1a7f37" stroke-width="1.5"/>
<polygon points="219.4,110.0 227.4,110.0 223.4,117.0" fill="#1a7f37"/>
<circle cx="223.4" cy="116.0" r="4" fill="#cf222e"/>
<text x="82.0" y="143.0" font-size="9" text-anchor="end" fill="#57606a" font-weight="normal">06-10</text>
<line x1="128.1" y1="140.0" x2="109.1" y2="140.0" stroke="#1a7f37" stroke-width="1.5"/>
<polygon points="105.1,134.0 113.1,134.0 109.1,141.0" fill="#1a7f37"/>
<circle cx="128.1" cy="140.0" r="4" fill="#cf222e"/>
<text x="82.0" y="167.0" font-size="9" text-anchor="end" fill="#57606a" font-weight="normal">06-11</text>
<line x1="242.5" y1="164.0" x2="128.1" y2="164.0" stroke="#bc4c00" stroke-width="1.5"/>
<polygon points="124.1,158.0 132.1,158.0 128.1,165.0" fill="#1a7f37"/>
<circle cx="242.5" cy="164.0" r="4" fill="#cf222e"/>
<text x="82.0" y="191.0" font-size="9" text-anchor="end" fill="#57606a" font-weight="normal">06-12</text>
<line x1="147.2" y1="188.0" x2="90.0" y2="188.0" stroke="#bc4c00" stroke-width="1.5"/>
<polygon points="86.0,182.0 94.0,182.0 90.0,189.0" fill="#1a7f37"/>
<circle cx="147.2" cy="188.0" r="4" fill="#cf222e"/>
<text x="82.0" y="215.0" font-size="9" text-anchor="end" fill="#57606a" font-weight="normal">06-15</text>
<text x="700.0" y="215.0" font-size="8" text-anchor="start" fill="#cf222e" font-weight="normal">brak alertu</text>
<circle cx="242.5" cy="212.0" r="4" fill="#cf222e"/>
<text x="82.0" y="239.0" font-size="9" text-anchor="end" fill="#57606a" font-weight="normal">06-16</text>
<line x1="90.0" y1="236.0" x2="90.0" y2="236.0" stroke="#1a7f37" stroke-width="1.5"/>
<polygon points="86.0,230.0 94.0,230.0 90.0,237.0" fill="#1a7f37"/>
<circle cx="90.0" cy="236.0" r="4" fill="#cf222e"/>
<text x="82.0" y="263.0" font-size="9" text-anchor="end" fill="#57606a" font-weight="normal">06-17</text>
<line x1="242.5" y1="260.0" x2="242.5" y2="260.0" stroke="#1a7f37" stroke-width="1.5"/>
<polygon points="238.5,254.0 246.5,254.0 242.5,261.0" fill="#1a7f37"/>
<circle cx="242.5" cy="260.0" r="4" fill="#cf222e"/>
<text x="82.0" y="287.0" font-size="9" text-anchor="end" fill="#57606a" font-weight="normal">06-18</text>
<text x="700.0" y="287.0" font-size="8" text-anchor="start" fill="#cf222e" font-weight="normal">brak alertu</text>
<circle cx="128.1" cy="284.0" r="4" fill="#cf222e"/>
<text x="82.0" y="311.0" font-size="9" text-anchor="end" fill="#57606a" font-weight="normal">06-19</text>
<line x1="204.4" y1="308.0" x2="147.2" y2="308.0" stroke="#bc4c00" stroke-width="1.5"/>
<polygon points="143.2,302.0 151.2,302.0 147.2,309.0" fill="#1a7f37"/>
<circle cx="204.4" cy="308.0" r="4" fill="#cf222e"/>
<circle cx="340" cy="46" r="4" fill="#cf222e"/>
<text x="350.0" y="49.0" font-size="9" text-anchor="start" fill="#57606a" font-weight="normal">szczyt</text>
<polygon points="410,42 418,42 414,49" fill="#1a7f37"/>
<text x="424.0" y="49.0" font-size="9" text-anchor="start" fill="#57606a" font-weight="normal">alert</text>
</svg>