<svg xmlns="http://www.w3.org/2000/svg" viewBox="0 0 720 340" font-family="-apple-system,Segoe UI,Helvetica,Arial,sans-serif">
<text x="360.0" y="20.0" font-size="12" text-anchor="middle" fill="#57606a" font-weight="bold">Asymetryczna kara: mocniej karzesz przegapienie -> lepiej lapiesz szczyt</text>
<text x="360.0" y="38.0" font-size="9" text-anchor="middle" fill="#57606a" font-weight="normal">slupki = % trafionych dni (wiecej lepiej); linia = sredni regret (mniej lepiej)</text>
<rect x="88.5" y="295.0" width="54.9" height="0.0" fill="#1a7f37" rx="2"/>
<text x="116.0" y="290.0" font-size="9" text-anchor="middle" fill="#57606a" font-weight="bold">0%</text>
<text x="116.0" y="309.0" font-size="9" text-anchor="middle" fill="#57606a" font-weight="normal">kara 1.0</text>
<rect x="210.6" y="251.5" width="54.9" height="43.5" fill="#1a7f37" rx="2"/>
<text x="238.0" y="246.5" font-size="9" text-anchor="middle" fill="#57606a" font-weight="bold">9%</text>
<text x="238.0" y="309.0" font-size="9" text-anchor="middle" fill="#57606a" font-weight="normal">kara 3.0</text>
<rect x="332.6" y="208.1" width="54.9" height="86.9" fill="#1a7f37" rx="2"/>
<text x="360.0" y="203.1" font-size="9" text-anchor="middle" fill="#57606a" font-weight="bold">18%</text>
<text x="360.0" y="309.0" font-size="9" text-anchor="middle" fill="#57606a" font-weight="normal">kara 6.0</text>
<rect x="454.6" y="121.2" width="54.9" height="173.8" fill="#1a7f37" rx="2"/>
<text x="482.0" y="116.2" font-size="9" text-anchor="middle" fill="#57606a" font-weight="bold">36%</text>
<text x="482.0" y="309.0" font-size="9" text-anchor="middle" fill="#57606a" font-weight="normal">kara 12.0</text>
<rect x="576.5" y="77.7" width="54.9" height="217.3" fill="#1a7f37" rx="2"/>
<text x="604.0" y="72.7" font-size="9" text-anchor="middle" fill="#57606a" font-weight="bold">45%</text>
<text x="604.0" y="309.0" font-size="9" text-anchor="middle" fill="#57606a" font-weight="normal">kara 30.0</text>
<polyline fill="none" stroke="#cf222e" stroke-width="2" points="116.0,81.1 238.0,88.8 360.0,68.2 482.0,192.2 604.0,220.8"/>
<circle cx="116.0" cy="81.1" r="3" fill="#cf222e"/>
<text x="116.0" y="73.1" font-size="8" text-anchor="middle" fill="#cf222e" font-weight="normal">3.6%</text>
<circle cx="238.0" cy="88.8" r="3" fill="#cf222e"/>
<text x="238.0" y="80.8" font-size="8" text-anchor="middle" fill="#cf222e" font-weight="normal">3.5%</text>
<circle cx="360.0" cy="68.2" r="3" fill="#cf222e"/>
<text x="360.0" y="60.2" font-size="8" text-anchor="middle" fill="#cf222e" font-weight="normal">3.8%</text>
<circle cx="482.0" cy="192.2" r="3" fill="#cf222e"/>
<text x="482.0" y="184.2" font-size="8" text-anchor="middle" fill="#cf222e" font-weight="normal">1.7%</text>
<circle cx="604.0" cy="220.8" r="3" fill="#cf222e"/>
<text x="604.0" y="212.8" font-size="8" text-anchor="middle" fill="#cf222e" font-weight="normal">1.2%</text>
<text x="49.0" y="60.0" font-size="9" text-anchor="end" fill="#1a7f37" font-weight="normal">trafione</text>
<text x="671.0" y="60.0" font-size="9" text-anchor="start" fill="#cf222e" font-weight="normal">regret</text>
<text x="360.0" y="332.0" font-size="9" text-anchor="middle" fill="#57606a" font-weight="normal">kara za przegapienie szczytu (false negative)</text>
</svg>