<svg xmlns="http://www.w3.org/2000/svg" viewBox="0 0 860 470" font-family="-apple-system,Segoe UI,Helvetica,Arial,sans-serif">
<text x="430.0" y="20.0" font-size="14" text-anchor="middle" fill="#57606a" font-weight="bold">Anatomia decyzji: 33 swiece -> prawdopodobienstwo -> JEDEN sygnal sprzedazy</text>
<text x="430.0" y="38.0" font-size="10" text-anchor="middle" fill="#1a7f37" font-weight="normal">realna sesja 2026-06-19 (out-of-sample): model wskazal 09:45, szczyt byl o 10:30 -> sprzedaz 0.31% ponizej maksimum</text>
<text x="55.0" y="50.0" font-size="10" text-anchor="start" fill="#57606a" font-weight="bold">Cena (PLN)</text>
<polyline fill="none" stroke="#0969da" stroke-width="2" points="55.0,107.6 79.5,107.6 104.1,103.3 128.6,86.0 153.1,86.0 177.7,86.0 202.2,81.7 226.7,81.7 251.2,94.6 275.8,86.0 300.3,99.0 324.8,90.3 349.4,103.3 373.9,90.3 398.4,90.3 423.0,99.0 447.5,99.0 472.0,103.3 496.6,111.9 521.1,124.9 545.6,172.5 570.2,224.3 594.7,185.4 619.2,150.8 643.8,159.5 668.3,163.8 692.8,168.1 717.3,155.2 741.9,155.2 766.4,155.2 790.9,159.5 815.5,176.8 840.0,172.5"/>
<circle cx="202.2" cy="81.7" r="5" fill="#cf222e"/>
<text x="202.2" y="71.7" font-size="9" text-anchor="middle" fill="#cf222e" font-weight="bold">faktyczny szczyt 10:30</text>
<line x1="128.6" y1="56" x2="128.6" y2="250" stroke="#1a7f37" stroke-width="1.5" stroke-dasharray="4 3"/>
<circle cx="128.6" cy="86.0" r="6" fill="none" stroke="#1a7f37" stroke-width="2.5"/>
<text x="128.6" y="54.0" font-size="10" text-anchor="middle" fill="#1a7f37" font-weight="bold">SPRZEDAJ 09:45</text>
<text x="55.0" y="264.0" font-size="8" text-anchor="middle" fill="#57606a" font-weight="normal">09:00</text>
<text x="153.1" y="264.0" font-size="8" text-anchor="middle" fill="#57606a" font-weight="normal">10:00</text>
<text x="251.2" y="264.0" font-size="8" text-anchor="middle" fill="#57606a" font-weight="normal">11:00</text>
<text x="349.4" y="264.0" font-size="8" text-anchor="middle" fill="#57606a" font-weight="normal">12:00</text>
<text x="447.5" y="264.0" font-size="8" text-anchor="middle" fill="#57606a" font-weight="normal">13:00</text>
<text x="545.6" y="264.0" font-size="8" text-anchor="middle" fill="#57606a" font-weight="normal">14:00</text>
<text x="643.8" y="264.0" font-size="8" text-anchor="middle" fill="#57606a" font-weight="normal">15:00</text>
<text x="741.9" y="264.0" font-size="8" text-anchor="middle" fill="#57606a" font-weight="normal">16:00</text>
<text x="840.0" y="264.0" font-size="8" text-anchor="middle" fill="#57606a" font-weight="normal">17:00</text>
<text x="55.0" y="294.0" font-size="10" text-anchor="start" fill="#57606a" font-weight="bold">p(dzienne maksimum) dla KAZDEJ swiecy - model bierze najwyzszy slupek</text>
<line x1="55" y1="430.0" x2="840" y2="430.0" stroke="#d0d7de" stroke-width="1"/>
<text x="49.0" y="433.0" font-size="8" text-anchor="end" fill="#57606a" font-weight="normal">0%</text>
<line x1="55" y1="365.0" x2="840" y2="365.0" stroke="#d0d7de" stroke-width="1"/>
<text x="49.0" y="368.0" font-size="8" text-anchor="end" fill="#57606a" font-weight="normal">50%</text>
<line x1="55" y1="300.0" x2="840" y2="300.0" stroke="#d0d7de" stroke-width="1"/>
<text x="49.0" y="303.0" font-size="8" text-anchor="end" fill="#57606a" font-weight="normal">100%</text>
<line x1="55" y1="352.0" x2="840" y2="352.0" stroke="#cf222e" stroke-width="1.3" stroke-dasharray="5 3"/>
<text x="840.0" y="348.0" font-size="9" text-anchor="end" fill="#cf222e" font-weight="normal">prog 60%</text>
<rect x="47.9" y="392.1" width="14.3" height="37.9" fill="#afb8c1" rx="1"/>
<rect x="72.4" y="386.3" width="14.3" height="43.7" fill="#afb8c1" rx="1"/>
<rect x="96.9" y="384.2" width="14.3" height="45.8" fill="#afb8c1" rx="1"/>
<rect x="121.5" y="335.8" width="14.3" height="94.2" fill="#1a7f37" rx="1"/>
<rect x="146.0" y="375.1" width="14.3" height="54.9" fill="#afb8c1" rx="1"/>
<rect x="170.5" y="376.8" width="14.3" height="53.2" fill="#afb8c1" rx="1"/>
<rect x="195.1" y="367.8" width="14.3" height="62.2" fill="#afb8c1" rx="1"/>
<rect x="219.6" y="376.0" width="14.3" height="54.0" fill="#afb8c1" rx="1"/>
<rect x="244.1" y="417.9" width="14.3" height="12.1" fill="#afb8c1" rx="1"/>
<rect x="268.6" y="395.1" width="14.3" height="34.9" fill="#afb8c1" rx="1"/>
<rect x="293.2" y="423.3" width="14.3" height="6.7" fill="#afb8c1" rx="1"/>
<rect x="317.7" y="408.8" width="14.3" height="21.2" fill="#afb8c1" rx="1"/>
<rect x="342.2" y="425.6" width="14.3" height="4.4" fill="#afb8c1" rx="1"/>
<rect x="366.8" y="403.1" width="14.3" height="26.9" fill="#afb8c1" rx="1"/>
<rect x="391.3" y="418.4" width="14.3" height="11.6" fill="#afb8c1" rx="1"/>
<rect x="415.8" y="425.1" width="14.3" height="4.9" fill="#afb8c1" rx="1"/>
<rect x="440.4" y="423.4" width="14.3" height="6.6" fill="#afb8c1" rx="1"/>
<rect x="464.9" y="426.8" width="14.3" height="3.2" fill="#afb8c1" rx="1"/>
<rect x="489.4" y="428.4" width="14.3" height="1.6" fill="#afb8c1" rx="1"/>
<rect x="514.0" y="429.3" width="14.3" height="0.7" fill="#afb8c1" rx="1"/>
<rect x="538.5" y="429.9" width="14.3" height="0.1" fill="#afb8c1" rx="1"/>
<rect x="563.0" y="430.0" width="14.3" height="0.0" fill="#afb8c1" rx="1"/>
<rect x="587.6" y="419.6" width="14.3" height="10.4" fill="#afb8c1" rx="1"/>
<rect x="612.1" y="388.3" width="14.3" height="41.7" fill="#afb8c1" rx="1"/>
<rect x="636.6" y="425.2" width="14.3" height="4.8" fill="#afb8c1" rx="1"/>
<rect x="661.1" y="425.6" width="14.3" height="4.4" fill="#afb8c1" rx="1"/>
<rect x="685.7" y="427.2" width="14.3" height="2.8" fill="#afb8c1" rx="1"/>
<rect x="710.2" y="418.8" width="14.3" height="11.2" fill="#afb8c1" rx="1"/>
<rect x="734.7" y="424.3" width="14.3" height="5.7" fill="#afb8c1" rx="1"/>
<rect x="759.3" y="424.9" width="14.3" height="5.1" fill="#afb8c1" rx="1"/>
<rect x="783.8" y="427.4" width="14.3" height="2.6" fill="#afb8c1" rx="1"/>
<rect x="808.3" y="429.6" width="14.3" height="0.4" fill="#afb8c1" rx="1"/>
<rect x="832.9" y="429.2" width="14.3" height="0.8" fill="#afb8c1" rx="1"/>
<text x="128.6" y="330.8" font-size="9" text-anchor="middle" fill="#1a7f37" font-weight="bold">max = 72%</text>
</svg>